<?xml version="1.0" standalone="no"?>
<!DOCTYPE svg PUBLIC "-//W3C//DTD SVG 20010904//EN"
 "http://www.w3.org/TR/2001/REC-SVG-20010904/DTD/svg10.dtd">
<svg version="1.0" xmlns="http://www.w3.org/2000/svg"
 width="200.000000pt" height="200.000000pt" viewBox="0 0 200.000000 200.000000"
 preserveAspectRatio="xMidYMid meet">

<g transform="translate(0.000000,200.000000) scale(0.100000,-0.100000)"
fill="#000000" stroke="none">
<path d="M0 1000 l0 -1000 1000 0 1000 0 0 1000 0 1000 -1000 0 -1000 0 0
-1000z m1038 633 c-21 -2 -55 -2 -75 0 -21 2 -4 4 37 4 41 0 58 -2 38 -4z
m-133 -13 c-27 -12 -43 -12 -25 0 8 5 22 9 30 9 10 0 8 -3 -5 -9z m215 0 c18
-12 2 -12 -25 0 -13 6 -15 9 -5 9 8 0 22 -4 30 -9z m-301 -39 c-45 -29 -93
-76 -122 -121 -10 -13 -17 -21 -17 -16 0 31 141 166 173 166 6 0 -9 -13 -34
-29z m396 -13 c41 -32 105 -107 105 -124 0 -5 -7 3 -17 16 -29 44 -77 92 -123
123 -25 16 -36 26 -25 23 11 -4 38 -21 60 -38z m-347 -126 c48 -33 62 -34 84
-7 26 33 70 33 96 0 22 -27 36 -26 84 7 19 13 44 18 91 18 l65 0 21 -51 c23
-52 33 -181 17 -207 -5 -9 -84 -12 -327 -12 -366 0 -335 -9 -333 100 1 43 9
82 24 118 l22 52 65 0 c47 0 72 -5 91 -18z m-211 -84 c-3 -8 -6 -5 -6 6 -1 11
2 17 5 13 3 -3 4 -12 1 -19z m690 0 c-3 -8 -6 -5 -6 6 -1 11 2 17 5 13 3 -3 4
-12 1 -19z m-700 -100 c-2 -18 -4 -6 -4 27 0 33 2 48 4 33 2 -15 2 -42 0 -60z
m710 0 c-2 -18 -4 -6 -4 27 0 33 2 48 4 33 2 -15 2 -42 0 -60z m-700 -70 c-3
-8 -6 -5 -6 6 -1 11 2 17 5 13 3 -3 4 -12 1 -19z m690 0 c-3 -8 -6 -5 -6 6 -1
11 2 17 5 13 3 -3 4 -12 1 -19z m-599 -151 c15 -16 50 -42 77 -58 28 -16 45
-29 39 -29 -19 0 -99 56 -131 94 -18 20 -42 54 -53 76 -31 61 -23 61 11 0 16
-30 42 -68 57 -83z m573 84 c-12 -22 -36 -57 -54 -77 -32 -38 -112 -94 -131
-94 -6 0 12 13 40 29 59 34 107 85 137 147 11 24 22 42 25 40 2 -2 -6 -22 -17
-45z m-384 -187 c-3 -3 -12 -4 -19 -1 -8 3 -5 6 6 6 11 1 17 -2 13 -5z m150 0
c-3 -3 -12 -4 -19 -1 -8 3 -5 6 6 6 11 1 17 -2 13 -5z m-64 -11 c-13 -2 -33
-2 -45 0 -13 2 -3 4 22 4 25 0 35 -2 23 -4z m-463 -123 c0 -46 2 -50 24 -50
15 0 33 11 45 27 12 14 24 23 28 19 3 -3 -3 -16 -15 -29 -28 -30 -28 -35 5
-69 15 -15 22 -28 17 -28 -6 0 -23 14 -39 30 -16 17 -37 30 -47 30 -13 0 -18
-8 -18 -30 0 -16 -4 -30 -10 -30 -6 0 -10 37 -10 90 0 53 4 90 10 90 6 0 10
-22 10 -50z m370 0 l55 -5 0 -60 0 -60 -62 -3 -63 -3 1 93 c1 53 4 82 8 68 6
-22 14 -26 61 -30z m420 0 c0 -45 2 -50 22 -50 12 0 32 12 44 28 12 15 25 24
29 21 3 -4 -5 -20 -19 -35 l-25 -29 32 -32 c17 -18 26 -33 21 -33 -6 0 -23 14
-39 30 -16 17 -37 30 -47 30 -13 0 -18 -8 -18 -30 0 -16 -4 -30 -10 -30 -6 0
-10 37 -10 90 0 53 4 90 10 90 6 0 10 -22 10 -50z m-522 -53 c4 -63 -9 -77
-67 -77 -57 0 -71 12 -71 61 0 65 5 70 74 67 l61 -3 3 -48z m316 37 c10 -27 7
-89 -6 -102 -7 -7 -33 -12 -58 -12 -25 0 -51 5 -58 12 -13 13 -17 100 -5 111
3 4 32 7 64 7 43 0 58 -4 63 -16z m154 -46 l-3 -63 -39 -3 c-22 -2 -50 -1 -63
2 -20 6 -23 12 -23 60 0 29 3 56 7 59 3 4 33 7 65 7 l59 0 -3 -62z"/>
<path d="M877 784 c-4 -4 -7 -27 -7 -51 l0 -44 53 3 52 3 0 45 0 45 -45 3
c-25 2 -49 0 -53 -4z"/>
<path d="M710 740 l0 -50 50 0 50 0 0 50 0 50 -50 0 -50 0 0 -50z"/>
<path d="M1030 740 l0 -50 50 0 50 0 0 50 0 50 -50 0 -50 0 0 -50z"/>
<path d="M1190 741 l0 -51 51 0 50 0 -3 48 -3 47 -47 3 -48 3 0 -50z"/>
</g>
</svg>
