<svg xmlns="http://www.w3.org/2000/svg" version="1.1" xmlns:xlink="http://www.w3.org/1999/xlink" xmlns:svgjs="http://svgjs.dev/svgjs" width="1000" height="1000" viewBox="0 0 1000 1000"><rect width="1000" height="1000" fill="#dedede"></rect><g transform="matrix(0.7,0,0,0.7,150.1165825648959,245.4063177015701)"><svg viewBox="0 0 339 247" data-background-color="#dedede" preserveAspectRatio="xMidYMid meet" height="728" width="1000" xmlns="http://www.w3.org/2000/svg" xmlns:xlink="http://www.w3.org/1999/xlink"><g id="tight-bounds" transform="matrix(1,0,0,1,-0.05645924786733758,-0.09999956061125204)"><svg viewBox="0 0 339.1128904676127 247.2" height="247.2" width="339.1128904676127"><g><svg viewBox="0 0 395.52 288.31857103744585" height="247.2" width="339.1128904676127"><g transform="matrix(1,0,0,1,0,173.41985793292974)"><svg viewBox="0 0 395.52 114.89871310451612" height="114.89871310451612" width="395.52"><g><svg viewBox="0 0 395.52 114.89871310451612" height="114.89871310451612" width="395.52"><g><svg viewBox="0 0 395.52 61.97087557603686" height="61.97087557603686" width="395.52"><g transform="matrix(1,0,0,1,0,0)"><svg width="395.52" viewBox="3.25 -33.5 216.99000549316406 34" height="61.97087557603686" data-palette-color="#374151"><path d="M15.15 0L3.25 0 3.25-1 7.25-2.5 7.25-30.5 3.25-32 3.25-33 15.15-33 15.15-32 11.15-30.5 11.15-17 25.3-30.65 21.6-32 21.6-33 31.85-33 31.85-32 28.8-31.05 15.05-18 31.25-2 34.45-1 34.45 0 27.9 0 11.15-16.8 11.15-2.5 15.15-1 15.15 0ZM55.35 0.5L55.35 0.5Q51.85 0.5 48.87-0.78 45.9-2.05 43.72-4.33 41.55-6.6 40.32-9.7 39.1-12.8 39.1-16.5L39.1-16.5Q39.1-20.2 40.32-23.3 41.55-26.4 43.72-28.68 45.9-30.95 48.87-32.23 51.85-33.5 55.35-33.5L55.35-33.5Q58.85-33.5 61.82-32.23 64.8-30.95 67-28.68 69.2-26.4 70.42-23.3 71.65-20.2 71.65-16.5L71.65-16.5Q71.65-12.8 70.42-9.7 69.2-6.6 67-4.33 64.8-2.05 61.82-0.78 58.85 0.5 55.35 0.5ZM56.4-1.6L56.4-1.6Q59.7-1.6 62.2-3.25 64.7-4.9 66.1-7.9 67.5-10.9 67.5-14.95L67.5-14.95Q67.5-19.95 65.75-23.65 64-27.35 61.05-29.4 58.1-31.45 54.5-31.45L54.5-31.45Q51.2-31.45 48.65-29.83 46.1-28.2 44.67-25.2 43.25-22.2 43.25-18.15L43.25-18.15Q43.25-13.15 45-9.43 46.75-5.7 49.72-3.65 52.7-1.6 56.4-1.6ZM90.95 0L78.4 0 78.4-1 82.35-2.5 82.35-30.5 78.4-32 78.4-33 89.6-33Q92.85-33 95.5-32.18 98.15-31.35 99.7-29.73 101.25-28.1 101.25-25.6L101.25-25.6Q101.25-23 99.52-20.83 97.8-18.65 94.6-17.7L94.6-17.7Q99.1-17.1 101.6-15 104.1-12.9 104.1-9.6L104.1-9.6Q104.1-6.85 102.37-4.67 100.65-2.5 97.7-1.25 94.75 0 90.95 0L90.95 0ZM89.05-30.65L89.05-30.65 86.25-30.65 86.25-18.2 89.35-18.2Q92.9-18.2 95-19.8 97.1-21.4 97.1-24.3L97.1-24.3Q97.1-27.45 95.05-29.05 93-30.65 89.05-30.65ZM90.95-15.85L90.95-15.85 86.25-15.85 86.25-2.3 91.3-2.3Q95.25-2.3 97.6-4.23 99.95-6.15 99.95-9.1L99.95-9.1Q99.95-12.6 97.57-14.23 95.2-15.85 90.95-15.85ZM126.44 0.5L126.44 0.5Q122.94 0.5 119.97-0.78 116.99-2.05 114.82-4.33 112.64-6.6 111.42-9.7 110.19-12.8 110.19-16.5L110.19-16.5Q110.19-20.2 111.42-23.3 112.64-26.4 114.82-28.68 116.99-30.95 119.97-32.23 122.94-33.5 126.44-33.5L126.44-33.5Q129.94-33.5 132.92-32.23 135.89-30.95 138.09-28.68 140.29-26.4 141.52-23.3 142.74-20.2 142.74-16.5L142.74-16.5Q142.74-12.8 141.52-9.7 140.29-6.6 138.09-4.33 135.89-2.05 132.92-0.78 129.94 0.5 126.44 0.5ZM127.49-1.6L127.49-1.6Q130.79-1.6 133.29-3.25 135.79-4.9 137.19-7.9 138.59-10.9 138.59-14.95L138.59-14.95Q138.59-19.95 136.84-23.65 135.09-27.35 132.14-29.4 129.19-31.45 125.59-31.45L125.59-31.45Q122.29-31.45 119.74-29.83 117.19-28.2 115.77-25.2 114.34-22.2 114.34-18.15L114.34-18.15Q114.34-13.15 116.09-9.43 117.84-5.7 120.82-3.65 123.79-1.6 127.49-1.6ZM165.99 0.5L165.99 0.5Q162.49 0.5 159.52-0.78 156.54-2.05 154.37-4.33 152.19-6.6 150.97-9.7 149.74-12.8 149.74-16.5L149.74-16.5Q149.74-20.2 150.97-23.3 152.19-26.4 154.37-28.68 156.54-30.95 159.52-32.23 162.49-33.5 165.99-33.5L165.99-33.5Q169.49-33.5 172.47-32.23 175.44-30.95 177.64-28.68 179.84-26.4 181.06-23.3 182.29-20.2 182.29-16.5L182.29-16.5Q182.29-12.8 181.06-9.7 179.84-6.6 177.64-4.33 175.44-2.05 172.47-0.78 169.49 0.5 165.99 0.5ZM167.04-1.6L167.04-1.6Q170.34-1.6 172.84-3.25 175.34-4.9 176.74-7.9 178.14-10.9 178.14-14.95L178.14-14.95Q178.14-19.95 176.39-23.65 174.64-27.35 171.69-29.4 168.74-31.45 165.14-31.45L165.14-31.45Q161.84-31.45 159.29-29.83 156.74-28.2 155.31-25.2 153.89-22.2 153.89-18.15L153.89-18.15Q153.89-13.15 155.64-9.43 157.39-5.7 160.37-3.65 163.34-1.6 167.04-1.6ZM200.94 0L189.04 0 189.04-1 193.04-2.5 193.04-30.5 189.04-32 189.04-33 200.94-33 200.94-32 196.94-30.5 196.94-17 211.09-30.65 207.39-32 207.39-33 217.64-33 217.64-32 214.59-31.05 200.84-18 217.04-2 220.24-1 220.24 0 213.69 0 196.94-16.8 196.94-2.5 200.94-1 200.94 0Z" opacity="1" transform="matrix(1,0,0,1,0,0)" fill="#374151" class="undefined-text-0" data-fill-palette-color="primary" id="text-0"></path></svg></g></svg></g><g transform="matrix(1,0,0,1,0,76.60071199852534)"><svg viewBox="0 0 395.52 38.29800110599078" height="38.29800110599078" width="395.52"><g transform="matrix(1,0,0,1,0,0)"><svg width="395.52" viewBox="0.9000000357627869 -39.599998474121094 530.8299560546875 51.39999771118164" height="38.29800110599078" data-palette-color="#374151"><path d="M0.9 0L0.9-8.2 3.1-8.2 3.1-19.6 0.9-19.6 0.9-27.8 3.2-27.8Q3.2-33.9 6.18-36.75 9.15-39.6 14.85-39.6L14.85-39.6Q17.6-39.6 19.78-39.2 21.95-38.8 22.95-38.3L22.95-38.3 22.95-30.45Q20.3-30.7 18.05-30.7L18.05-30.7Q16.1-30.7 15.35-30.05 14.6-29.4 14.6-27.8L14.6-27.8 18.5-27.8 18.5-19.6 14.6-19.6 14.6-8.2 18.5-8.2 18.5 0 0.9 0ZM40.23 0.05L24.33 0.05 24.33-8.2 26.53-8.2 26.53-30.7 24.33-30.7 24.33-38.9 38.03-38.9 38.03-8.2 40.23-8.2 40.23 0.05ZM58.66-30.55L48.46-30.55 48.46-38.9 58.66-38.9 58.66-30.55ZM61.96 0L46.06 0 46.06-8.2 48.26-8.2 48.26-19.6 46.06-19.6 46.06-27.8 59.76-27.8 59.76-8.2 61.96-8.2 61.96 0ZM82.23 11.8Q78.63 11.8 75.36 11.3 72.08 10.8 70.28 10.15L70.28 10.15 70.28 1.95Q75.58 2.9 79.78 2.9L79.78 2.9Q82.63 2.9 83.91 2.02 85.18 1.15 85.18-1.25L85.18-1.25 85.18-3.4Q83.93-1.8 81.96-0.55 79.98 0.7 77.43 0.7L77.43 0.7Q72.33 0.7 69.76-3.1 67.18-6.9 67.18-13.9L67.18-13.9Q67.18-20.9 69.76-24.7 72.33-28.5 77.43-28.5L77.43-28.5Q79.98-28.5 81.96-27.25 83.93-26 85.18-24.4L85.18-24.4 85.18-27.8 98.88-27.8 98.88-19.6 96.68-19.6 96.68-2Q96.68 5.25 93.08 8.53 89.48 11.8 82.23 11.8L82.23 11.8ZM82.28-8.2Q83.73-8.2 84.46-8.97 85.18-9.75 85.18-11.4L85.18-11.4 85.18-16.4Q85.18-18.05 84.46-18.82 83.73-19.6 82.28-19.6L82.28-19.6Q80.83-19.6 80.11-18.82 79.38-18.05 79.38-16.4L79.38-16.4 79.38-11.4Q79.38-9.75 80.11-8.97 80.83-8.2 82.28-8.2L82.28-8.2ZM135.51-8.2L137.71-8.2 137.71 0 121.91 0 121.91-8.2 124.01-8.2 124.01-16.4Q124.01-18.05 123.31-18.82 122.61-19.6 121.21-19.6L121.21-19.6Q118.21-19.6 118.21-16.4L118.21-16.4 118.21-8.2 120.31-8.2 120.31 0 104.51 0 104.51-8.2 106.71-8.2 106.71-30.7 104.51-30.7 104.51-38.9 118.21-38.9 118.21-23.9Q120.06-26.2 122.21-27.35 124.36-28.5 127.21-28.5L127.21-28.5Q131.36-28.5 133.44-25.9 135.51-23.3 135.51-18.75L135.51-18.75 135.51-8.2ZM155.89 0.7Q150.59 0.7 147.92-1.88 145.24-4.45 145.24-10.55L145.24-10.55 145.24-19.6 143.04-19.6 143.04-27.8Q144.94-27.8 145.89-28.78 146.84-29.75 146.84-31.45L146.84-31.45 146.84-33.7 157.44-33.7 157.44-27.8 164.19-27.8 164.19-19.6 157.44-19.6 157.44-11.4Q157.44-9.75 158.17-8.97 158.89-8.2 160.34-8.2L160.34-8.2Q162.24-8.2 164.49-8.65L164.49-8.65 164.49-0.8Q163.09-0.25 160.72 0.23 158.34 0.7 155.89 0.7L155.89 0.7ZM182.47 0.7Q176.17 0.7 170.32-1.3L170.32-1.3 170.32-8.7 178.42-8.7 178.42-8.2Q178.42-5.8 181.47-5.8L181.47-5.8Q184.17-5.8 184.17-7.65L184.17-7.65Q184.17-8.65 183.39-9.15 182.62-9.65 180.67-10L180.67-10 178.17-10.45Q170.32-11.85 170.32-19.35L170.32-19.35Q170.32-23.7 173.62-26.1 176.92-28.5 182.52-28.5L182.52-28.5Q188.77-28.5 193.07-26.4L193.07-26.4 193.07-19.45 185.47-19.45 185.47-19.95Q185.47-20.95 184.79-21.48 184.12-22 182.82-22L182.82-22Q180.32-22 180.32-20.4L180.32-20.4Q180.32-19.55 181.02-19.1 181.72-18.65 183.57-18.25L183.57-18.25 186.42-17.7Q190.87-16.85 192.77-14.55 194.67-12.25 194.67-8.65L194.67-8.65Q194.67-4.1 191.49-1.7 188.32 0.7 182.47 0.7L182.47 0.7ZM246.68-8.2L248.88-8.2 248.88 0 235.68 0 235.68-3.4Q234.58-1.8 232.6-0.55 230.63 0.7 227.78 0.7L227.78 0.7Q224.03 0.7 221.88-1.3 219.73-3.3 219.73-6.95L219.73-6.95Q219.73-16.4 235.78-16.65L235.78-16.65Q235.63-18.35 234.48-18.98 233.33-19.6 230.58-19.6L230.58-19.6Q228.33-19.6 225.75-19.13 223.18-18.65 221.03-17.85L221.03-17.85 221.03-27.05Q223.68-27.7 226.78-28.1 229.88-28.5 232.83-28.5L232.83-28.5Q240.28-28.5 243.48-25.8 246.68-23.1 246.68-17.45L246.68-17.45 246.68-8.2ZM235.68-11.4L235.68-11.7Q233.43-11.7 232.2-11.1 230.98-10.5 230.98-9.1L230.98-9.1Q230.98-8.25 231.5-7.73 232.03-7.2 232.98-7.2L232.98-7.2Q234.28-7.2 234.98-8.3 235.68-9.4 235.68-11.4L235.68-11.4ZM285.7-8.2L287.9-8.2 287.9 0 272.1 0 272.1-8.2 274.2-8.2 274.2-16.4Q274.2-18.05 273.5-18.82 272.8-19.6 271.4-19.6L271.4-19.6Q268.4-19.6 268.4-16.4L268.4-16.4 268.4-8.2 270.5-8.2 270.5 0 254.7 0 254.7-8.2 256.9-8.2 256.9-19.6 254.7-19.6 254.7-27.8 268.4-27.8 268.4-23.9Q272-28.5 277.4-28.5L277.4-28.5Q281.55-28.5 283.63-25.9 285.7-23.3 285.7-18.75L285.7-18.75 285.7-8.2ZM303.58 0.7Q298.48 0.7 295.91-3.1 293.33-6.9 293.33-13.9L293.33-13.9Q293.33-20.9 295.91-24.7 298.48-28.5 303.58-28.5L303.58-28.5Q306.13-28.5 308.11-27.25 310.08-26 311.33-24.4L311.33-24.4 311.33-30.7 308.38-30.7 308.38-38.9 322.83-38.9 322.83-8.2 325.03-8.2 325.03 0 311.33 0 311.33-3.4Q310.08-1.8 308.11-0.55 306.13 0.7 303.58 0.7L303.58 0.7ZM308.43-8.2Q309.88-8.2 310.61-8.97 311.33-9.75 311.33-11.4L311.33-11.4 311.33-16.4Q311.33-18.05 310.61-18.82 309.88-19.6 308.43-19.6L308.43-19.6Q306.98-19.6 306.26-18.82 305.53-18.05 305.53-16.4L305.53-16.4 305.53-11.4Q305.53-9.75 306.26-8.97 306.98-8.2 308.43-8.2L308.43-8.2ZM381.09-8.2L383.29-8.2 383.29 0 367.49 0 367.49-8.2 369.59-8.2 369.59-16.4Q369.59-18.05 368.89-18.82 368.19-19.6 366.79-19.6L366.79-19.6Q363.79-19.6 363.79-16.4L363.79-16.4 363.79-8.2 365.89-8.2 365.89 0 350.09 0 350.09-8.2 352.29-8.2 352.29-30.7 350.09-30.7 350.09-38.9 363.79-38.9 363.79-23.9Q365.64-26.2 367.79-27.35 369.94-28.5 372.79-28.5L372.79-28.5Q376.94-28.5 379.01-25.9 381.09-23.3 381.09-18.75L381.09-18.75 381.09-8.2ZM404.02 0.7Q396.92 0.7 392.92-3.03 388.92-6.75 388.92-13.9L388.92-13.9Q388.92-21.05 392.92-24.78 396.92-28.5 404.02-28.5L404.02-28.5Q411.22-28.5 415.17-24.73 419.12-20.95 419.12-13.9L419.12-13.9Q419.12-6.75 415.12-3.03 411.12 0.7 404.02 0.7L404.02 0.7ZM404.02-8.2Q405.47-8.2 406.19-8.97 406.92-9.75 406.92-11.4L406.92-11.4 406.92-16.4Q406.92-18.05 406.19-18.82 405.47-19.6 404.02-19.6L404.02-19.6Q402.57-19.6 401.84-18.82 401.12-18.05 401.12-16.4L401.12-16.4 401.12-11.4Q401.12-9.75 401.84-8.97 402.57-8.2 404.02-8.2L404.02-8.2ZM437.3 0.7Q432 0.7 429.32-1.88 426.65-4.45 426.65-10.55L426.65-10.55 426.65-19.6 424.45-19.6 424.45-27.8Q426.35-27.8 427.3-28.78 428.25-29.75 428.25-31.45L428.25-31.45 428.25-33.7 438.85-33.7 438.85-27.8 445.6-27.8 445.6-19.6 438.85-19.6 438.85-11.4Q438.85-9.75 439.57-8.97 440.3-8.2 441.75-8.2L441.75-8.2Q443.65-8.2 445.9-8.65L445.9-8.65 445.9-0.8Q444.5-0.25 442.12 0.23 439.75 0.7 437.3 0.7L437.3 0.7ZM466.62 0.7Q459.52 0.7 455.52-3.03 451.52-6.75 451.52-13.9L451.52-13.9Q451.52-21.05 455.52-24.78 459.52-28.5 466.62-28.5L466.62-28.5Q473.67-28.5 476.8-24.83 479.92-21.15 479.92-15.7L479.92-15.7 479.92-12.1 463.72-12.1 463.72-11.8Q463.72-9.95 464.82-9.08 465.92-8.2 468.47-8.2L468.47-8.2Q471.52-8.2 474.27-8.65 477.02-9.1 479.07-9.8L479.07-9.8 479.07-1.8Q477.32-0.85 473.95-0.08 470.57 0.7 466.62 0.7L466.62 0.7ZM463.72-17.6L469.52-17.6 469.52-18.2Q469.52-19.9 468.8-20.65 468.07-21.4 466.62-21.4L466.62-21.4Q465.17-21.4 464.45-20.63 463.72-19.85 463.72-18.2L463.72-18.2 463.72-17.6ZM501.55 0.05L485.65 0.05 485.65-8.2 487.85-8.2 487.85-30.7 485.65-30.7 485.65-38.9 499.35-38.9 499.35-8.2 501.55-8.2 501.55 0.05ZM519.53 0.7Q513.23 0.7 507.38-1.3L507.38-1.3 507.38-8.7 515.48-8.7 515.48-8.2Q515.48-5.8 518.53-5.8L518.53-5.8Q521.23-5.8 521.23-7.65L521.23-7.65Q521.23-8.65 520.46-9.15 519.68-9.65 517.73-10L517.73-10 515.23-10.45Q507.38-11.85 507.38-19.35L507.38-19.35Q507.38-23.7 510.68-26.1 513.98-28.5 519.58-28.5L519.58-28.5Q525.83-28.5 530.13-26.4L530.13-26.4 530.13-19.45 522.53-19.45 522.53-19.95Q522.53-20.95 521.86-21.48 521.18-22 519.88-22L519.88-22Q517.38-22 517.38-20.4L517.38-20.4Q517.38-19.55 518.08-19.1 518.78-18.65 520.63-18.25L520.63-18.25 523.48-17.7Q527.93-16.85 529.83-14.55 531.73-12.25 531.73-8.65L531.73-8.65Q531.73-4.1 528.56-1.7 525.38 0.7 519.53 0.7L519.53 0.7Z" opacity="1" transform="matrix(1,0,0,1,0,0)" fill="#374151" class="undefined-text-1" data-fill-palette-color="secondary" id="text-1"></path></svg></g></svg></g></svg></g></svg></g><g transform="matrix(1,0,0,1,98.95485501378664,0)"><svg viewBox="0 0 197.6102899724267 158.79002151044128" height="158.79002151044128" width="197.6102899724267"><g><svg xmlns="http://www.w3.org/2000/svg" xmlns:xlink="http://www.w3.org/1999/xlink" version="1.1" x="8" y="0" viewBox="10.000052452087402 15.026500701904297 79.99989318847656 69.94749450683594" enable-background="new 0 0 100 100" xml:space="preserve" height="158.79002151044128" width="181.6102899724267" class="icon-icon-0" data-fill-palette-color="accent" id="icon-0"><path d="M85.954 36.922c-0.482 0-0.972-0.087-1.449-0.27L50 23.403 15.495 36.652c-2.086 0.801-4.425-0.241-5.225-2.326-0.801-2.085 0.241-4.425 2.326-5.225L48.55 15.295c0.933-0.358 1.966-0.358 2.9 0l35.954 13.806c2.085 0.801 3.127 3.14 2.326 5.225C89.112 35.935 87.579 36.922 85.954 36.922z" fill="#374151" data-fill-palette-color="accent"></path><g fill="#374151" data-fill-palette-color="accent"><circle cx="26.491" cy="53.376" r="7.6" fill="#374151" data-fill-palette-color="accent"></circle><path d="M40.647 71.829h-18.2c-2.234 0-4.044-1.811-4.044-4.044s1.811-4.044 4.044-4.044h14.156V49.585c0-2.234 1.811-4.044 4.044-4.044 2.234 0 4.045 1.811 4.045 4.044v18.2C44.692 70.019 42.881 71.829 40.647 71.829z" fill="#374151" data-fill-palette-color="accent"></path><path d="M81.092 62.603v9.226h-33.62V53.376h21.107C75.531 53.376 81.092 54.893 81.092 62.603z" fill="#374151" data-fill-palette-color="accent"></path></g><path d="M82.807 84.974H17.193c-2.234 0-4.044-1.811-4.044-4.044s1.811-4.044 4.044-4.044h65.614c2.234 0 4.044 1.811 4.044 4.044S85.041 84.974 82.807 84.974z" fill="#374151" data-fill-palette-color="accent"></path></svg></g></svg></g><g><rect width="70.75130024759301" height="5.588597513390599" y="152.20142399705068" x="296.56514498621334" fill="#374151" data-fill-palette-color="accent"></rect><rect width="70.75130024759301" height="5.588597513390599" y="152.20142399705068" x="28.203554766193633" fill="#374151" data-fill-palette-color="accent"></rect><rect width="70.75130024759301" height="5.588597513390599" y="141.0242289702695" x="296.56514498621334" fill="#374151" data-fill-palette-color="accent"></rect><rect width="70.75130024759301" height="5.588597513390599" y="141.0242289702695" x="28.203554766193633" fill="#374151" data-fill-palette-color="accent"></rect></g></svg></g><defs></defs></svg><rect width="339.1128904676127" height="247.2" fill="none" stroke="none" visibility="hidden"></rect></g></svg></g></svg>